# xmcd CD database file
#
# Track frame offsets:
#	150
#	10018
#	34873
#	65565
#	86275
#	111920
#	131204
#
# Disc length: 2216 seconds
#
# Revision: 1
# Processed by: cddbd v1.5.1PL2 Copyright (c) Steve Scherf et al.
# Submitted via: CDex 1.51
#
DISCID=5608a607
DTITLE=Pekka Pohjola - Harakka Bialoipokku
DYEAR=1974
DGENRE=Progressive Rock
TTITLE0=Alku - the Beginning
TTITLE1=Ensimm‰inen aamu - The First Morning
TTITLE2=Huono s‰‰ - Se tanssii... - Bad Weather - Bialoipokku Dances...
TTITLE3=ja n‰kee unta - Bialoipokku's War Dream
TTITLE4=Hereill‰kin uni jatkuu - Bialoipokku's War
TTITLE5=Sekoilu seestyy - The Madness Subsides
TTITLE6=El‰m‰ jatkuu - Life Goes On
EXTD=YEAR: 1974
EXTT0=
EXTT1=
EXTT2=
EXTT3=
EXTT4=
EXTT5=
EXTT6=
PLAYORDER=
